<?xml version="1.0" encoding="utf-8"?>
<!-- Generator: Adobe Illustrator 23.0.3, SVG Export Plug-In . SVG Version: 6.00 Build 0)  -->
<svg version="1.1" id="Layer_1" xmlns="http://www.w3.org/2000/svg" xmlns:xlink="http://www.w3.org/1999/xlink" x="0px" y="0px"
	 viewBox="0 0 1505.8 874.7" style="enable-background:new 0 0 1505.8 874.7;" xml:space="preserve">
<style type="text/css">
	.st0{fill:#E4EFFF;}
	.st1{fill:#3BB6D5;}
	.st2{fill:#339CB6;}
	.st3{fill:#E9D6B8;}
	.st4{fill:#D1DBEA;}
	.st5{fill:#B0BFDE;}
	.st6{fill:#161711;}
	.st7{fill:#E2C59C;}
	.st8{fill:#163F59;}
	.st9{fill:#FEC12F;}
	.st10{fill:#194866;}
	.st11{fill:#3D7AA8;}
	.st12{fill:#FFBF0D;}
	.st13{fill:#F3AA06;}
	.st14{fill:#FECE40;}
	.st15{fill:#7DCCD0;}
	.st16{fill:#367082;}
	.st17{fill:#88BDDA;}
	.st18{fill:#ACD5F4;}
	.st19{fill:#001F46;}
	.st20{fill:#3DC7C9;}
	.st21{fill:#33A8B5;}
	.st22{fill:#DCE5EA;}
	.st23{fill:#F8C44F;}
	.st24{fill:#FEB04C;}
	.st25{fill:#316091;}
	.st26{fill:#B6C2C9;}
	.st27{fill:#879BA6;}
	.st28{fill:#E4EEF3;}
	.st29{fill:#15100C;}
	.st30{fill:#D0DEE6;}
	.st31{fill:#86BBD8;}
	.st32{fill:url(#SVGID_1_);}
	.st33{fill:#B4C0C7;}
	.st34{fill:#D6E3EB;}
	.st35{fill:#8599A4;}
	.st36{fill:#D7DFE2;}
	.st37{fill:#FFFFFF;}
	.st38{fill:#F4DA80;}
	.st39{fill:#34688F;}
	.st40{fill:url(#SVGID_2_);}
	.st41{fill:#FFD917;}
</style>
<path class="st0" d="M795.6,656.3c220.9,12.3,413.5,37.6,539.3,62.6c126.9,25.4,187.1,50.5,167.1,71.5
	c-20.1,21.2-115.2,36.2-242.1,48.7c-127.7,12.1-287.3,21.8-456.7,23.5C473,867.8,167,824.1,96,751.5
	C24.4,679.4,344.2,629.1,795.6,656.3z"/>
<g>
	<path class="st1" d="M894.4,212.8c-47.3,1.6-125.1-3.1-156.7-14.4c-31.9-11.5-36.9-98.3-15.6-120.5c21.6-21.9,82.1-28.6,112.2-30.5
		c75-4.8,142.3,0.9,130.5,67.6C952.7,184.2,945.6,211,894.4,212.8z"/>
	<path class="st1" d="M752.8,191.6c0,0-1.3,26.3,32.3,45.6c0,0-13.9-38.5,4.7-54.3C801,173.4,752.8,191.6,752.8,191.6z"/>
</g>
<rect x="765.3" y="94.5" class="st2" width="134.6" height="10.4"/>
<rect x="765.3" y="120.4" class="st2" width="134.6" height="10.4"/>
<rect x="765.3" y="146.2" class="st2" width="134.6" height="10.4"/>
<g>
	<g>
		<g>
			<path class="st3" d="M719,372.6l-31.7,44.5l-12.8,0.2c0,0,0-0.7,2.8-2.2c0.8-0.4,4.8,0,5.4-0.8c0.8-1,4.9-2.3,5.1-4.1
				c1.7-12.7,1.9-32,8.4-44.9C706.6,344.5,719.8,372.1,719,372.6z"/>
			<path class="st4" d="M793.1,253.2c0,0-21.5,4.4-58,50.3c-37.3,46.8-33.6,48.2-33.6,48.2l-5.6,12.4l19.5,15l63.4-72.4L793.1,253.2
				z"/>
			<path class="st5" d="M796.5,287l-44.9,49.2l-18,16.3l5.6-9.5c0,0,3.9-5.6,25.2-33.2c12-15.5,17.8-20.9,25.8-28L796.5,287z"/>
			<polygon class="st5" points="706.3,357.9 719.3,366.6 722.3,369.2 715.6,378.4 703.3,365.5 			"/>
		</g>
		<path class="st3" d="M669.6,409.3c-3.7,2.1-10.7,5.2-8.3,6.6l12.8-5.1l6.8,0.1l3.9,3.8l2.6-3.8c1.7-0.4,2.9-0.9,2.1-3.7l1.1-1.5
			c-5.1-1-7.2-1.5-8.8-1.3l-6.3,1.7C673.6,406.6,669.6,409.3,669.6,409.3z"/>
	</g>
	<path class="st2" d="M846.8,417.5c0,0-27.5,97.6-49.6,132.5c-22.1,34.9-29.8-10.5-29.8-10.5l27.4-162.2l64.1-0.4
		C859,376.9,857.4,380.2,846.8,417.5z"/>
	<path class="st2" d="M816.4,377.3c0,0,18.4,160.1,21.1,168.1c8.9,27.2,29.3,9.6,32.5,0.6c3.2-9.1,8.4-76.2,7.4-125.1
		s-1.1-45.8-1.1-45.8L816.4,377.3z"/>
	<path class="st6" d="M872.6,691.5c0.9,1.2,0.3,4.2,0.3,4.2s-16.6,1.8-21.9,0.6c-1.4-0.3-3.7-1.5-5.9-2.8c-0.4-0.2-1-1.5-1.4-1.7
		c-0.7-0.4-1,0.3-1.6-0.1c-1.5-0.9-2.5-1.7-2.5-1.8c-1.5-7.6,0.5-10.7,0.5-10.7s14.1-4.7,16.8-1.4C863,685.6,870.6,689,872.6,691.5z
		"/>
	<path class="st6" d="M769.4,684.7l-2.4,12.4h-12.6c0,0-0.7-1.8-1.8-1.8c-0.9,0-2.1,1.8-3.3,1.8c-2.7,0-5.6,0-6.8,0
		c-2.4,0-25.3,0-25.3,0s-0.6-2.6,0.1-3.5c0.3-0.5,2.5-1.3,3.9-1.7c6.5-1.8,25.2-7.5,28.4-13.8C753.7,670.6,769.4,684.7,769.4,684.7z
		"/>
	<path class="st7" d="M840.5,202.9c0.3,4.1,2.8,7.2,5.5,7l0,0c2.8-0.2,4.8-3.6,4.5-7.7l-0.4-5.1c-0.3-4.1-2.8-7.2-5.5-7l0,0
		c-2.8,0.2-4.8,3.6-4.5,7.7L840.5,202.9z"/>
	<path class="st7" d="M823.9,244.9c1.3,5.2,5.4,9.3,9.1,9c3.5-0.5,7-1,10.5-1.4c3.7-0.7,6.5-5.8,6.3-11.1c-0.3-8.8-0.7-17.7-1-26.5
		c-0.1-5.3-4.1-15.5-10.1-17.8c-5.5-2.1-11.3-1.3-16,2.2c-5.2,3.9-6.2,14.7-4.9,19.9C819.8,227.7,821.9,236.3,823.9,244.9z"/>
	<path class="st3" d="M909.3,354.1l-41,42c0,0,49.4-11.3,51.6-31.8C922.1,343.8,909.3,354.1,909.3,354.1z"/>
	<path class="st4" d="M786.5,255.4l32.8-12.3l17.9,5.4l22.2-2.5l24.4,10.6c0,0,11,10.6,0.8,44.7c-10.3,34.1-6.3,87.4-6.3,87.4
		l-87,3.9c0,0-3.2-49.6-7.4-98.7C780.6,255.4,790.3,263.8,786.5,255.4z"/>
	<path class="st4" d="M868.1,258c0,0,13.6-10.6,26.8,9.1c20.3,30.2,33.9,63.6,36.3,70.4c2.4,6.8,5.5,27.3-3.9,33.3s-9.5,6.1-9.5,6.1
		L898,364.8l3.2-6.1l1.6-3.8c0,0-11-24.2-22.8-46.2C868.1,286.8,868.1,258,868.1,258z"/>
	<path class="st3" d="M817.1,230.5c3.8,5.8,6.9,6.4,11.8,5.6c4.5-1,5.8-0.9,10.3-1.9c4.7-1.3,7.5-9,6.7-15c-1.3-9.9,1.3-19.2,0-29
		c-0.7-5.9-4.7-10.2-12.8-12c-7.4-1.6-17.2-6.6-23-2.1c-6.4,5-6.8,17.3-4.6,22.9C809,208.3,813.6,221.1,817.1,230.5z"/>
	<polygon class="st5" points="837.5,248.6 844.8,260.5 859.2,244.6 852.8,237.8 	"/>
	<polygon class="st5" points="822.4,237.6 831.1,246.4 825.2,256.7 818.1,243.1 	"/>
	<path class="st2" d="M832.8,477.1c0,0,4.1,60.7,3.5,92.8c-0.4,24.2-0.5,70.6,3.2,110.2c0.2,2.4,20,0.6,20,0.6
		s13.3-151.3,15.4-176.1C877,479.7,848.6,459.4,832.8,477.1z"/>
	<path class="st2" d="M774.3,544.3c0,0,5.6,1.2,23.1,2.7c8,0.7-23.4,140-23.4,140l-24.8-10.7l18.7-140.4L774.3,544.3z"/>
	<path class="st8" d="M846.9,181.7l-1,8.4c0,0-9.8-5.8-17.1-10.8c-2.3-1.6-18.8,3.6-22.6,5.6c-2.8,1.5-1.9,5.4-1.9,7.9
		c0.1,8.7-3.3-13.7-3.3-13.7s2.3-11.8,12.5-16c5.6-2.3,9.4,0.1,13,3.8c0.8,0.9-6.9,0.4-5.8-0.1c0.3-0.1,9,3.6,9.3,4
		c1.8,1.9,3.6,3.8,5.7,5.4C843.9,181.8,846.9,181.7,846.9,181.7z"/>
	<polygon class="st7" points="823.8,194.1 819.4,196.2 821.5,198.6 818.4,201.1 819.4,216.2 825.4,214.7 823.6,205.8 825.8,200.4 
		834.7,196.6 	"/>
	<polygon class="st4" points="918.2,373 901.2,358.7 894.6,367.8 911.2,381.4 	"/>
	<g>
		<path class="st3" d="M880.4,380.1c-2.7,0.8-2.6,0.6-2.6,0.6s0.1,3.6-2,6.3c-1.1,1.3-5.1,5.1-5.1,5.1l-5.9,5.6l-2.9,2.4
			c0,0-1.8,1.2-1.9,1.9c-0.5,1.9,1.1,1.5,1.1,1.5l12.1-8.3l-9.2,10.7c0,0-0.9,1.6-0.4,2.3c0.5,0.7,0.9,0.3,0.9,0.3l13.1-9.6l-4.1,6
			c0,0-0.9,1.5-0.4,2.3c0.6,0.8,0.7,1.1,0.7,1.1l10-11.1C884.1,397.2,883.2,379.2,880.4,380.1z"/>
		<path class="st3" d="M874.6,397.5l-6,7.9c0,0-1.5,1.6-1.8,2.8c-0.3,1.4,0.9,1.7,0.9,1.7l10.2-11L874.6,397.5z"/>
	</g>
	<path class="st5" d="M838.1,390.1h-9.2c-9.6-47.6-9.2-96.8,1.4-144.3c2.8,1.1,5.5,2.2,8.3,3.3C828.4,295.6,828.2,343.7,838.1,390.1
		z"/>
</g>
<g>
	<g>
		<g>
			<g>
				<path class="st9" d="M382.9,175.3l-38.1-52.4c11.6-8.4,23.8-12.4,38.1-12.4V175.3z"/>
			</g>
		</g>
		<g>
			<g>
				<path class="st9" d="M382.9,175.3l-10.6-64c3.4-0.5,7-0.8,10.6-0.8V175.3z"/>
			</g>
		</g>
		<g>
			<g>
				<path class="st10" d="M382.9,175.3v-64.8c35.8,0,64.8,29,64.8,64.8c0,35.8-29,64.8-64.8,64.8c-35.8,0-64.8-29-64.8-64.8
					c0-21.5,9.3-39.8,26.7-52.4L382.9,175.3z"/>
			</g>
		</g>
	</g>
	<g>
		<g>
			<g>
				<path class="st11" d="M382.9,175.3l61.7,20c11.1-34-7.6-70.6-41.6-81.7c-6.8-2.2-12.9-3.2-20-3.2L382.9,175.3L382.9,175.3z"/>
			</g>
		</g>
	</g>
</g>
<g>
	<path class="st12" d="M349,446.1c-3.5,0-6.4-2.9-6.4-6.4V384c0-3.5,2.9-6.4,6.4-6.4h81.3c3.5,0,6.4,2.9,6.4,6.4v55.7
		c0,3.5-2.9,6.4-6.4,6.4L349,446.1L349,446.1z"/>
	<path class="st12" d="M349,446.1c-3.5,0-6.4-2.9-6.4-6.4V384c0-3.5,2.9-6.4,6.4-6.4h81.3c3.5,0,6.4,2.9,6.4,6.4v55.7
		c0,3.5-2.9,6.4-6.4,6.4L349,446.1L349,446.1z"/>
	<path class="st13" d="M430.4,377.6H349c-3.5,0-6.4,2.9-6.4,6.4v3.4l74.7,58.7h13c3.5,0,6.4-2.9,6.4-6.4V384
		C436.8,380.4,433.9,377.6,430.4,377.6z"/>
	<path class="st14" d="M389.7,420.4l47.1-32.8V384c0-3.5-2.9-6.4-6.4-6.4H349c-3.5,0-6.4,2.9-6.4,6.4v3.6L389.7,420.4z"/>
</g>
<path class="st15" d="M456.5,154.6c60.5-32.1,121.1-35.2,175.1-21c53.9,14.2,74.6,27.4,66.9,91.8s-29,101-59.6,99.8
	c-87.2-3.5-109.3-5.4-155.1-1.6l14.6,33.4l-36.9-31.6c-45.9,1.7-52.8-19.3-55.7-35.9C405.9,289.5,396,186.7,456.5,154.6z"/>
<g>
	<g>
		<path class="st16" d="M991.9,626.5c3.4,0,8.8-0.8,13.6-4.9c6.8-5.9,9.8-16.5,8.8-31.3c-0.7-10-4.6-20.2-8.8-30.9
			c-7-18.1-15-38.5-10.8-65.6l-7.7-1.2c-4.5,29.2,4.3,51.6,11.3,69.7c4.1,10.6,7.7,19.8,8.3,28.6c0.8,12-1.3,20.6-6,24.8
			c-4.5,4-10.1,3-10.3,2.9l-1.6,7.7C988.6,626.2,989.9,626.5,991.9,626.5z"/>
	</g>
	<g>
		<g>
			<path class="st17" d="M931.9,688.6l-7.6,11.6l64.1,20.5c0,0,4.3-4.1-11.4-12.3C958.6,698.8,931.9,688.6,931.9,688.6z"/>
			<path class="st17" d="M920.5,688.6l7.6,11.6l-64,20.5c0,0-4.3-4.1,11.4-12.3C893.8,698.8,920.5,688.6,920.5,688.6z"/>
		</g>
		<rect x="919.5" y="654" class="st17" width="13.4" height="47.7"/>
		<g>
			<path class="st18" d="M932.7,691l-6.5,11.1l54.8,19.6c0,0,3.7-3.9-9.8-11.8C955.6,700.8,932.7,691,932.7,691z"/>
			<path class="st18" d="M919.7,691l6.5,11.1l-54.8,19.6c0,0-3.7-3.9,9.8-11.8C896.8,700.8,919.7,691,919.7,691z"/>
		</g>
		<path class="st19" d="M974.8,726.1c0,2.6,2.1,4.7,4.7,4.7c2.6,0,4.7-2.1,4.7-4.7s-2.1-4.7-4.7-4.7
			C976.9,721.5,974.8,723.5,974.8,726.1z"/>
		<path class="st19" d="M868.6,726.1c0,2.6,2.1,4.7,4.7,4.7c2.6,0,4.7-2.1,4.7-4.7s-2.1-4.7-4.7-4.7
			C870.7,721.5,868.6,723.5,868.6,726.1z"/>
		<path class="st16" d="M986.1,726.1c0,2.6,2.1,4.7,4.7,4.7c2.6,0,4.7-2.1,4.7-4.7s-2.1-4.7-4.7-4.7
			C988.2,721.5,986.1,723.5,986.1,726.1z"/>
		<path class="st16" d="M857.3,726.1c0,2.6,2.1,4.7,4.7,4.7c2.6,0,4.7-2.1,4.7-4.7s-2.1-4.7-4.7-4.7
			C859.4,721.5,857.3,723.5,857.3,726.1z"/>
	</g>
	<rect x="921.5" y="636.5" class="st16" width="9.8" height="17.1"/>
	<path class="st16" d="M914.1,627.5c0,5.3,4.3,9.5,9.6,9.5h5.4c5.3,0,9.6-4.3,9.6-9.5l0,0c0-5.3-4.3-9.5-9.6-9.5h-5.4
		C918.4,617.9,914.1,622.2,914.1,627.5L914.1,627.5z"/>
	<path class="st20" d="M853.6,618.7c-0.2-1.1-0.4-8.2-0.4-9.4c0-7.7,5-14,11.1-14h124c6.1,0,11.1,6.2,11.1,14c0,1.2-0.1,8.3-0.4,9.4
		H853.6z"/>
	<path class="st16" d="M1000.6,622.5c0,2.4-1.4,4.3-3.1,4.3H855.2c-1.7,0-3.1-1.9-3.1-4.3l0,0c0-2.4,1.4-4.3,3.1-4.3h142.4
		C999.3,618.3,1000.6,620.2,1000.6,622.5L1000.6,622.5z"/>
	<g>
		<path class="st20" d="M993.7,547.1c-3.1,0.2-22.5,0.6-25.8,0.6c-21.3,0.3-39.6-3.7-40.6-9c-4.2-21.8-4.4-44.1-0.6-65.9
			c0.9-5.2,19.5-9.2,41.2-9c3.4,0,23.3,0.4,26.4,0.6C987.6,491.7,987.4,520,993.7,547.1z"/>
		<path class="st16" d="M996.6,464.5c2.4,0,4,1.2,3.7,2.5c-5.9,25.5-6.2,52-0.7,77.6c0.3,1.4-1.3,2.5-3.7,2.5l0,0
			c-2.3,0-4.5-1.1-4.8-2.4c-5.6-25.6-5.4-52.2,0.5-77.8C992,465.6,994.2,464.5,996.6,464.5L996.6,464.5z"/>
		<path class="st21" d="M997.6,547.1c-0.6,0.2-4.8,0.4-5.6,0.4c-4.6,0-9.4-4-10.3-9.2c-3.9-21.5-3.8-43.4,0.3-64.9
			c1-5.2,5.9-9.2,10.6-9.2c0.8,0,5,0.2,5.7,0.4C991.5,491.7,991.3,520,997.6,547.1z"/>
	</g>
</g>
<g>
	<g>
		<path class="st22" d="M961.5,321.5h11.8v6C970.7,323.9,966.4,321.5,961.5,321.5z"/>
		<path class="st22" d="M958.1,321.5v16.7c0,8.1,6.5,14.6,14.6,14.6h0.7v25.7h-52.1v-57L958.1,321.5L958.1,321.5z"/>
	</g>
	<g>
		<path class="st23" d="M948.9,361c0,0,1,4.2-18.6,62.8c-19.6,58.5-32.7,51.5-32.7,51.5l-16.2-1.6l-31.1-36.9l16.7-14.6l3.4,1.3
			c0,0,4.3-1.8,4.8-5.8s8.3-20.2,28.6-48.6C913.9,355,945,359.6,948.9,361z"/>
		<path class="st3" d="M854.7,437.5c0,0-40.3,20.6-65.7-19.3c-7.6-11.9-4.3,1.8-0.2,14.8s29.2,42.3,57.7,44.3
			c28.5,2,39.3,0.4,44.7-9.5C896.5,457.9,854.7,437.5,854.7,437.5z"/>
		<path class="st24" d="M889.4,428.1l-10.2-6.6l-4.2-2.4c-1.2,3-4.5,4.4-4.5,4.4l8.5,3.5l9.3,6l9.6,11.5L889.4,428.1z"/>
		<path class="st23" d="M891.8,526.1l76.3-1.7l31.7-106.3c0,0,18.2-45.7-5.9-58.2c-54-28-73.1-2-73.1-2S869.5,375.4,891.8,526.1z"/>
		<path class="st24" d="M919.2,520.4c-3,0.4-6,0.9-9,1.3c-4.9-55.8,0.3-112.5,15.2-166.4c2.4,0.8,4.9,1.6,7.3,2.4
			C918.6,410.6,914,465.9,919.2,520.4z"/>
		<path class="st8" d="M766.1,751.7c0,0,7.4,11.5,11.2,4.4c11.4-21.1,21.6-87.5,22.3-114.8c0.9-36.4,2.5-58.5,2.5-58.5l-36.6-13.3
			L766.1,751.7z"/>
		<path class="st8" d="M894.5,525.3l-129.1,44.2l33.9,18.9c0,0,133.2,23.4,135.6-26.1C936.8,520.8,894.5,525.3,894.5,525.3z"/>
		<path class="st10" d="M812,752.8c0,0,6.7,6.1,10.5-0.9c11.4-21.1,30-77,30.7-104.3c0.9-36.4-5.1-61.7-5.1-61.7l-37.4-13L812,752.8
			z"/>
		<path class="st10" d="M934.5,526.8l-123.1,46.5l33.7,18.4c0,0,125,23.4,127.4-26.1C974.9,516.1,934.5,526.8,934.5,526.8z"/>
		<path class="st10" d="M974.7,568.3c0.3,3.4-1.7,14.8-5.5,19.3c-11.7,14.1-39.3,9.4-61.3,9.4c-1.2,0-7.3-17.2-7.3-17.2l-9.2-56.2
			l77.2,1.3C968.6,524.9,972,539.9,974.7,568.3z"/>
		<path class="st3" d="M849.3,490.9l-28.3-5.1c0,0-4.4-0.5-4.6,2.6c-0.3,4,0.5,17.1,0.5,17.1l5.1-3.1l7.3,4.4l8.4-11.2
			c0,0,4.4,0.8,8-0.1C846.9,495.3,849.3,490.9,849.3,490.9z"/>
		<path class="st3" d="M918.6,482.9l-74.8,8.3c0,0,40.1,20.5,58.5,20.6c18.4,0.1,35.6-4.1,35.6-4.1L918.6,482.9z"/>
		<path class="st24" d="M955.5,405.3l-37.4,70.8l2.1,5.7l-5.8,1.1l17.5,27.8l27.4-6.3l42.6-96.4c0,0,17.3-49.6-15-46
			C977.9,363,958.8,399.7,955.5,405.3z"/>
		<path class="st23" d="M946,500.2c0,0-17.7-13.5-26.7-20.9l0.9,2.5l-5.8,1.1l6.1,9.6l10.6,12.3l6.1-2.2l-2.3-4.3L946,500.2z"/>
		<g>
			<g>
				<path class="st8" d="M922.5,303.7c0,5.1,4.1,9.3,9.3,9.3h34.9c5.1,0,9.3-4.1,9.3-9.3l0,0c0-5.1-4.1-9.3-9.3-9.3h-34.9
					C926.6,294.5,922.5,298.6,922.5,303.7L922.5,303.7z"/>
				<path class="st8" d="M928.9,319.8c0,9.4,7.7,17.1,17.1,17.1h18.2c9.4,0,17.1-7.6,17.1-17.1l0,0c0-9.4-7.7-17.1-17.1-17.1H946
					C936.5,302.7,928.9,310.3,928.9,319.8L928.9,319.8z"/>
				<path class="st3" d="M915.2,347.1v-53.4c0-8.5,6.9,0,15.4,0h8.2c8.5,0,15.4,6.9,15.4,15.4v38L915.2,347.1L915.2,347.1z"/>
				<path class="st3" d="M947.4,321c0,3.7,3,6.8,6.8,6.8l0,0c3.7,0,6.8-3,6.8-6.8l0,0c0-3.7-3-6.8-6.8-6.8l0,0
					C950.4,314.3,947.4,317.3,947.4,321L947.4,321z"/>
				<path class="st3" d="M919.6,330.4c0,2.2-1.7,3.9-3.8,3.9h-3.2c-2.1,0-3.8-1.8-3.8-3.9c0,0,6.9-20.3,9-20.3c0,0,1.7,1.8,1.7,3.9
					L919.6,330.4L919.6,330.4z"/>
				<path class="st8" d="M936.7,344.2c15.4,0,17-4.7,17.5-10.1c0,0,4.1,13.5,4.1,17.9v4.9c0,9.4-9.7,17-21.6,17h-21.6v-24v-5.7
					L936.7,344.2L936.7,344.2z"/>
				<path class="st8" d="M915.2,334.3h12.3c5.7,0,10.3,4.6,10.3,10.3c0,0.9-0.2,1.8-0.4,2.6h-22.2V334.3z"/>
				<path class="st3" d="M931.1,345.1v3.4c0,1-0.8,1.7-1.7,1.7h-10c-0.9,0-1.7-0.8-1.7-1.7v-3.4H931.1z"/>
				<path class="st8" d="M920.5,284.2h31.6c3.4,0,6.2,2.8,6.2,6.2v12.3h-37.8V284.2z"/>
				<path class="st8" d="M900.9,293.4c0,5.1,4.2,9.3,9.3,9.3h21.4c5.2,0,9.3-4.2,9.3-9.3l0,0c0-5.1-4.2-9.3-9.3-9.3h-21.4
					C905.1,284.1,900.9,288.3,900.9,293.4L900.9,293.4z"/>
			</g>
			<rect x="946" y="298.2" class="st8" width="8.6" height="22.5"/>
			<rect x="926.8" y="288.6" class="st8" width="25.2" height="26.5"/>
			<path class="st3" d="M946,315.4c0-7-5.7-12.7-12.7-12.7h-6.6c-7,0-10.8,5.7-10.8,12.7l0,0c0,7,5.7,12.7,12.7,12.7h4.6
				C940.3,328.1,946,322.4,946,315.4L946,315.4z"/>
		</g>
		<g>
			<path class="st3" d="M792.1,432c0,0,6.1-14.5,3.9-18.5c-2.2-3.9-11.1-17.8-11.1-17.8l-2.6-3.3c0,0-5.3,0.8,0.8,10.1
				c6.1,9.3,0.6,6.4,0.6,6.4l-8.8-6.3l-11.3-6.9l-4.6-3.7c0,0-2.5-2.3-3.5-2.4c-3.1-0.1-2,2.2-2,2.2l16.8,15.9l-19.5-10.5
				c0,0-2.7-0.9-3.7,0.2c-0.9,1.1-0.1,1.6-0.1,1.6l19.3,17l-10.7-4.3c0,0-2.7-0.9-3.7,0.2c-1.1,1.2-1.4,1.5-1.4,1.5l39.3,22
				L792.1,432z"/>
			<path class="st3" d="M767.1,410.4l-14.2-6.6c0,0-3-1.8-4.9-1.8c-2.2,0-2.3,1.9-2.3,1.9l20.4,12.1L767.1,410.4z"/>
		</g>
		<path class="st10" d="M800,764.1c-0.7,1.1-0.1,4-0.1,4s11.5,1.9,15.2,0.8c1-0.3,2.6-1.4,4.1-2.6c0.3-0.2,0.7-1.4,0.9-1.6
			c0.5-0.4,0.7,0.3,1.1-0.1c1-0.9,1.7-1.5,1.7-1.6c0.9-7.2-0.4-10.1-0.4-10.1s-9.8-4.6-11.7-1.5C806.6,758.5,801.4,761.7,800,764.1z
			"/>
		<path class="st8" d="M778.6,755l-1.6,10.4h-8.7c0,0-0.5-1.5-1.2-1.5c-0.6,0-1.4,1.5-2.3,1.5c-1.8,0-3.9,0-4.7,0
			c-1.6,0-17.5,0-17.5,0s-0.4-2.2,0.1-3c0.3-0.4,1.7-1.1,2.7-1.4c4.5-1.5,18.2-4.9,21.2-9.8C768.8,747.6,778.6,755,778.6,755z"/>
	</g>
</g>
<g>
	<g>
		<g>
			<path class="st17" d="M589,632.5l7.6,11.6l-64,20.5c0,0-4.3-4.1,11.4-12.3C562.4,642.7,589,632.5,589,632.5z"/>
			<path class="st17" d="M600.4,632.5l-7.6,11.6l64,20.5c0,0,4.3-4.1-11.4-12.3C627.1,642.7,600.4,632.5,600.4,632.5z"/>
		</g>
		<rect x="588" y="597.9" class="st17" width="13.4" height="47.7"/>
		<g>
			<path class="st18" d="M588.2,634.9l6.5,11.1l-54.8,19.6c0,0-3.7-3.9,9.8-11.8C565.3,644.7,588.2,634.9,588.2,634.9z"/>
			<path class="st18" d="M601.3,634.9l-6.5,11.1l54.8,19.6c0,0,3.7-3.9-9.8-11.8C624.1,644.7,601.3,634.9,601.3,634.9z"/>
		</g>
		<path class="st19" d="M546.1,670c0,2.6-2.1,4.7-4.7,4.7s-4.7-2.1-4.7-4.7s2.1-4.7,4.7-4.7S546.1,667.4,546.1,670z"/>
		<path class="st19" d="M652.3,670c0,2.6-2.1,4.7-4.7,4.7c-2.6,0-4.7-2.1-4.7-4.7s2.1-4.7,4.7-4.7
			C650.2,665.4,652.3,667.4,652.3,670z"/>
		<path class="st16" d="M534.8,670c0,2.6-2.1,4.7-4.7,4.7s-4.7-2.1-4.7-4.7s2.1-4.7,4.7-4.7C532.8,665.4,534.8,667.4,534.8,670z"/>
		<path class="st16" d="M663.6,670c0,2.6-2.1,4.7-4.7,4.7c-2.6,0-4.7-2.1-4.7-4.7s2.1-4.7,4.7-4.7
			C661.5,665.4,663.6,667.4,663.6,670z"/>
	</g>
	<rect x="589.7" y="580.4" class="st16" width="9.8" height="17.1"/>
	<path class="st16" d="M606.8,571.4c0,5.3-4.3,9.5-9.5,9.5h-5.4c-5.3,0-9.5-4.3-9.5-9.5l0,0c0-5.3,4.3-9.5,9.5-9.5h5.4
		C602.5,561.8,606.8,566.1,606.8,571.4L606.8,571.4z"/>
	<path class="st20" d="M667.3,562.6c0.2-1.1,0.4-8.2,0.4-9.4c0-7.7-5-14-11.1-14h-124c-6.1,0-11.1,6.3-11.1,14
		c0,1.2,0.1,8.3,0.4,9.4H667.3z"/>
	<path class="st16" d="M520.3,566.4c0,2.4,1.4,4.3,3.1,4.3h142.4c1.7,0,3.1-1.9,3.1-4.3l0,0c0-2.4-1.4-4.3-3.1-4.3H523.4
		C521.7,562.1,520.3,564.1,520.3,566.4L520.3,566.4z"/>
</g>
<g>
	<path class="st11" d="M618.5,538.9c0,0-79.8,0.2-110.5,0.6c-21.3,0.3-23.2-30-14.8-34.6c25.5-13.9,105.1-21,105.1-21l54.1,49.7
		C652.3,533.6,649.3,533.6,618.5,538.9z"/>
	<path class="st1" d="M543.3,376.2c0,0-20.5-5.7-29.4,21c-13.7,41.1-12.5,78.8-10.6,86.8c0.9,3.7,3.5,16.5,26.4,17
		c9.3,0.2,5.6-19.7,5.6-19.7s6-16.9,12.3-45.5C553.9,407.2,543.3,376.2,543.3,376.2z"/>
	<path class="st2" d="M527.1,378.5l52.6-17l39.8-2.7L663,372c0,0,14.3,9.8,1,41.5c-13.3,31.6-8.2,81.1-8.2,81.1l-112.5,3.6
		c0,0-2.1-45.8-9.6-91.6C532.2,396.4,532,384.4,527.1,378.5z"/>
	<path class="st1" d="M604.2,496h-5.7c-6-44.2-5.7-89.8,0.9-133.9c1.7,1,3.5,2.1,5.2,3.1C603.1,410.3,605.6,455.3,604.2,496z"/>
	<g>
		<path class="st7" d="M581.9,373.9c0.8,6.1,5.7,11.4,11,11.6c5,0,9.9,0,14.9,0c5.2-0.3,10.2-5.5,11-11.6c1.2-10,2.4-20,3.7-30.1
			c0.8-6-2.8-18.1-10.7-21.6c-7.2-3.2-15.5-3.2-22.8,0c-7.9,3.6-11.5,15.6-10.7,21.6C579.4,353.9,580.7,363.9,581.9,373.9z"/>
	</g>
	<polygon class="st1" points="600.9,386.3 610.3,401.7 627.6,380.1 624.9,368.7 619.3,364.1 619.2,372.7 	"/>
	<polygon class="st1" points="599.7,386.3 590.3,401.7 574.2,381.6 576.8,369.2 580.9,364 582.5,374.1 	"/>
	<g>
		<path class="st8" d="M602.5,303.1c4.2,0,7.8,2.1,9.9,5.4h4.1c5.1,0,9.2,4.1,9.2,9.2v22.8h-6.5v-9.3c0-3.6-2.9-6.5-6.5-6.5H609h6
			h-4c-6.6,0-11.9-5.3-11.9-11.9v-9.7H602.5z"/>
		<path class="st7" d="M614,348.9c0,3.1,2.5,5.6,5.7,5.6h0.5c3.1,0,5.6-2.5,5.6-5.6v-6.9c0-3.1-2.5-5.6-5.6-5.6h-0.5
			c-2.3,0-4.3,1.4-5.2,3.4L614,348.9z"/>
		<path class="st8" d="M607.6,312.1v-9h-3.7H594h-6c-6.6,0-11.9,5.3-11.9,11.9v9h3.7h9.8h6C602.2,324,607.6,318.7,607.6,312.1z"/>
		<path class="st3" d="M577.8,357.6c0,4.7,3.6,12.7,9.6,15.3c8.1,3.4,17.8,3.4,25.9,0c6-2.5,9.6-10.5,9.6-15.3c0-13.4,0-26.9,0-40.3
			c0-4.8-4.7-8.8-10.6-8.9c-8,0-16,0-24,0c-5.8,0.1-10.6,4.1-10.6,8.9C577.8,330.7,577.8,344.2,577.8,357.6z"/>
		<path class="st8" d="M595.8,303.1c-4.2,0-7.8,2.1-10,5.4h-4.1c-5.1,0-9.2,4.1-9.2,9.2v22.8h6.5v-9.3c0-3.6,2.9-6.5,6.5-6.5h0.1
			h-2.3h10.5c6.6,0,11.9-5.3,11.9-11.9v-9.7H595.8z"/>
		<path class="st3" d="M584.2,342.1c0-3.1-2.5-5.6-5.6-5.6h-0.5c-3.1,0-5.6,2.5-5.6,5.6v6.9c0,3.1,2.5,5.6,5.6,5.6h0.5
			c2.3,0,4.3-1.4,5.2-3.4L584.2,342.1z"/>
		<path class="st8" d="M605.7,314.5c-0.2-0.8-0.2-1.5-0.2-2.3v-9h3.7h4.7c6.6,0,11.9,5.3,11.9,11.9v9h-2.5H622h-4.7
			c-0.8,0-1.7-0.1-2.4-0.3C614,319.1,610.3,315.4,605.7,314.5z"/>
	</g>
	<path class="st6" d="M710.1,691.4c1.2,1.5,0.3,5.4,0.3,5.4s-21.5,2.4-28.4,0.8c-1.8-0.4-4.8-2-7.7-3.6c-0.5-0.3-1.3-1.9-1.8-2.2
		c-0.9-0.5-1.3,0.3-2.1-0.1c-1.9-1.2-3.3-2.1-3.3-2.3c-1.9-9.8,0.6-13.8,0.6-13.8s18.3-6.1,21.7-1.8
		C697.6,683.7,707.4,688.1,710.1,691.4z"/>
	<path class="st6" d="M509.5,680.7l-1.5,16.2l-16.2,1.6c0,0-1.1-2.2-2.5-2c-1.2,0.1-2.4,2.5-4,2.7c-3.4,0.3-7.2,0.7-8.7,0.8
		c-3,0.3-32.6,3.2-32.6,3.2s-1.1-3.3-0.3-4.5c0.4-0.6,3-1.9,4.8-2.6c8.2-3.2,31.4-12.9,34.8-21.3
		C487.4,664.5,509.5,680.7,509.5,680.7z"/>
	<g>
		<path class="st3" d="M534,475.4l54.9,22.4c0,0-38.9,5.5-63.3,0.6C509.2,495.1,533.3,474.7,534,475.4z"/>
	</g>
	<path class="st11" d="M658.6,509.6c0,0,5.3,50.1,4.5,76.6c-0.6,20-0.6,58.3,4.1,90.9c0.3,2,25.8,0.5,25.8,0.5s9.2-124.3,11.9-144.7
		C707.7,512.4,699.8,497.7,658.6,509.6z"/>
	<path class="st25" d="M498,521.6c0,0,8.2,13,30.8,16.1c8.2,1.1-13.2,145.5-13.2,145.5l-33.3-10.7l6.4-159.6L498,521.6z"/>
	<path class="st25" d="M590,537.7c0,0,43.6,6.2,72.7,9.3c10.7,1.1,19.9-28.8,21.1-30c7.8-8.2,15.5-7.1,15.2-7.4
		c-6.3-6.8-38.9-13.1-73.1-21.1c-34.1-8-39.3-3-39.3-3L590,537.7z"/>
	<path class="st11" d="M626,488.4c34.1,8,66.7,14.3,73.1,21.1c0.3,0.3-7.4-0.7-15.2,7.4c-0.3,0.4-2.3,9.9-3.7,13.3
		c5.6-10-74.6-38.3-91.9-45.6C591.4,483.7,600.9,482.5,626,488.4z"/>
	<polygon class="st25" points="663.4,537.3 666.8,634.9 670.1,657.5 670.5,634.9 669.7,620.8 677.5,598.9 681.6,548.1 675.7,550.3 
		676.4,528.1 	"/>
	<path class="st11" d="M499.2,509.5l-8.2,2.2l-3,117.2l17.1,41.9l-8.2-28.5l3.3-59c0,0,11.9,28.5,11.9,27.1s-10-61.9-10-61.9
		s11.1,9.3,10,8.9C511,557,505.5,515.1,499.2,509.5z"/>
	<path class="st2" d="M638.9,372.5c0,0,17.5-13.7,34.7,11.8c25.1,37.3,36,77,40,88.5c3.1,8.8,1.4,33.7-8.9,44
		c-2.5,2.5-17.3,0.5-17.3,0.5l-9.7-6.7l4.1-7.8l0.2-6.2c0,0-12.4-30-27.8-58.4C638.9,409.7,638.9,372.5,638.9,372.5z"/>
	<g>
		<path class="st3" d="M681.8,486.7l-56.9,3c0,0,54.8,25.1,56.6,20.8C691.8,485.9,681.8,486.7,681.8,486.7z"/>
		<g>
			<path class="st3" d="M650.5,484.9c-3.3-1.6-3-1.6-3-1.6s-3,3.6-7.4,4.3c-2.2,0.3-9.2,0.4-9.2,0.4l-10.5,0.3l-4.9-0.3
				c0,0-2.7-0.4-3.5,0.1c-2.1,1.4-0.3,2.5-0.3,2.5l18.8,2.7l-18,2.2c0,0-2.3,0.7-2.4,1.9c-0.1,1.2,0.7,1.1,0.7,1.1l21,2.2l-9.2,2.2
				c0,0-2.2,0.7-2.4,1.9c-0.2,1.3-0.3,1.7-0.3,1.7l19.3-1.9C639.1,504.5,653.8,486.5,650.5,484.9z"/>
			<path class="st3" d="M629.7,496.5l-12.6,2.3c0,0-2.9,0.2-4.2,1.1c-1.5,1.1-0.6,2.3-0.6,2.3l19.3-1.6L629.7,496.5z"/>
		</g>
	</g>
	<g>
		<path class="st26" d="M550.6,506.4c0,0,0-0.1-0.1-0.1l0.1-3.6h112.1v3.6c0,0,0,0.1,0,0.1l-0.4,0.7c-1.9,3.1-5.3,3.7-9.3,3.7h-92.8
			c-3.9,0-7.3-0.6-9.3-3.7L550.6,506.4z"/>
		<g>
			<rect x="569.5" y="503.6" class="st27" width="74.2" height="2.5"/>
		</g>
		<g>
			<path class="st28" d="M550.7,503.1l-0.3-73.5c0-1.9,1.5-3.5,3.5-3.5h104.9c1.9,0,3.5,1.6,3.5,3.5l0.3,73.5H550.7z"/>
			<path class="st26" d="M599.7,464.6c0,3.8,3.1,6.8,6.8,6.8s6.8-3,6.8-6.8s-3.1-6.8-6.8-6.8C602.7,457.8,599.6,460.9,599.7,464.6z"
				/>
		</g>
	</g>
	<polygon class="st1" points="689.2,515.1 693.1,490.1 686.6,483.5 672.2,485.8 675.2,513.4 	"/>
	<polygon class="st1" points="514.7,497.2 513.3,488 531.4,471.7 541.3,476.1 528.4,500.7 	"/>
</g>
<g>
	<g>
		<path class="st16" d="M174.6,630.8c-3.4,0-8.8-0.8-13.5-4.9c-6.8-5.9-9.8-16.5-8.8-31.3c0.7-10,4.6-20.2,8.8-30.9
			c7-18.1,15-38.5,10.8-65.6l7.7-1.2c4.5,29.2-4.3,51.6-11.3,69.7c-4.1,10.6-7.7,19.8-8.3,28.6c-0.8,12,1.3,20.6,6,24.8
			c4.5,4,10.1,3,10.3,2.9l1.6,7.7C177.9,630.6,176.6,630.8,174.6,630.8z"/>
	</g>
	<g>
		<g>
			<path class="st17" d="M234.7,692.9l7.6,11.6l-64,20.5c0,0-4.3-4.1,11.4-12.3C208,703.2,234.7,692.9,234.7,692.9z"/>
			<path class="st17" d="M246,692.9l-7.6,11.6l64,20.5c0,0,4.3-4.1-11.4-12.3C272.7,703.2,246,692.9,246,692.9z"/>
		</g>
		<rect x="233.7" y="658.3" class="st17" width="13.4" height="47.7"/>
		<g>
			<path class="st18" d="M233.8,695.4l6.5,11.1l-54.8,19.6c0,0-3.7-3.9,9.8-11.8C211,705.2,233.8,695.4,233.8,695.4z"/>
			<path class="st18" d="M246.9,695.4l-6.5,11.1l54.8,19.6c0,0,3.7-3.9-9.8-11.8C269.7,705.2,246.9,695.4,246.9,695.4z"/>
		</g>
		<path class="st19" d="M191.7,730.5c0,2.6-2.1,4.7-4.7,4.7s-4.7-2.1-4.7-4.7s2.1-4.7,4.7-4.7C189.6,725.8,191.7,727.9,191.7,730.5z
			"/>
		<path class="st19" d="M297.9,730.5c0,2.6-2.1,4.7-4.7,4.7c-2.6,0-4.7-2.1-4.7-4.7s2.1-4.7,4.7-4.7S297.9,727.9,297.9,730.5z"/>
		<path class="st16" d="M180.5,730.5c0,2.6-2.1,4.7-4.7,4.7c-2.6,0-4.7-2.1-4.7-4.7s2.1-4.7,4.7-4.7S180.5,727.9,180.5,730.5z"/>
		<path class="st16" d="M309.2,730.5c0,2.6-2.1,4.7-4.7,4.7c-2.6,0-4.7-2.1-4.7-4.7s2.1-4.7,4.7-4.7S309.2,727.9,309.2,730.5z"/>
	</g>
	<rect x="235.3" y="640.9" class="st16" width="9.8" height="17.1"/>
	<path class="st16" d="M252.4,631.8c0,5.3-4.3,9.5-9.5,9.5h-5.4c-5.3,0-9.5-4.3-9.5-9.5l0,0c0-5.3,4.3-9.5,9.5-9.5h5.4
		C248.1,622.3,252.4,626.6,252.4,631.8L252.4,631.8z"/>
	<path class="st20" d="M312.9,623.1c0.2-1.1,0.4-8.2,0.4-9.4c0-7.7-5-14-11.1-14h-124c-6.2,0-11.1,6.3-11.1,14
		c0,1.2,0.1,8.3,0.4,9.4H312.9z"/>
	<path class="st16" d="M165.9,626.9c0,2.4,1.4,4.3,3.1,4.3h142.4c1.7,0,3.1-1.9,3.1-4.3l0,0c0-2.4-1.4-4.3-3.1-4.3H169
		C167.3,622.6,165.9,624.5,165.9,626.9L165.9,626.9z"/>
	<g>
		<path class="st20" d="M172.9,551.5c3.1,0.2,22.5,0.6,25.8,0.6c21.3,0.3,39.6-3.7,40.6-9c4.2-21.8,4.4-44.1,0.5-65.9
			c-0.9-5.2-19.5-9.2-41.2-9c-3.4,0-23.3,0.4-26.4,0.6C178.9,496,179.1,524.3,172.9,551.5z"/>
		<path class="st16" d="M169.9,468.9c-2.4,0-4,1.2-3.7,2.5c5.9,25.5,6.2,52,0.7,77.6c-0.3,1.4,1.3,2.5,3.7,2.5l0,0
			c2.3,0,4.5-1.1,4.8-2.4c5.5-25.6,5.4-52.2-0.5-77.8C174.5,469.9,172.3,468.9,169.9,468.9L169.9,468.9z"/>
		<path class="st21" d="M169,551.5c0.6,0.2,4.8,0.4,5.6,0.4c4.6,0.1,9.4-4,10.3-9.2c3.9-21.5,3.8-43.4-0.3-64.9
			c-1-5.2-5.9-9.2-10.6-9.2c-0.8,0-5,0.2-5.7,0.4C175,496.1,175.2,524.3,169,551.5z"/>
	</g>
</g>
<g>
	<g>
		<path class="st3" d="M389.6,512.6l-5.3-6.5l-5.6-4l-10.9-2.5c0,0-11.9-1.2-16.5,0s-22.4-0.3-24.6,0c-2.2,0.3-3.6,6.8-3.6,6.8
			s16.3,0.5,23.8,0.3c7.5-0.2,18.4,3.2,21.3,3.2c2.4,0,4.5-0.3,6.2-0.6c1.8-0.3,1.8-0.9,0.3-1.2c-2.5-0.4-5.8-1-7.1-1.1
			c-2.1-0.2-0.8-2.4-0.8-2.4s10.9,0.9,13.6,2.3c2.7,1.4,3.6,2.7,4.7,3.7C386.9,512.3,389.6,512.6,389.6,512.6z"/>
		<path class="st19" d="M295.1,379.6c0,13.7-11.1,24.8-24.8,24.8l-6.2-11.8c-13.7,0-24.8-20.7-24.8-34.4v-9.3
			c0-13.7,11.1-24.8,24.8-24.8h6.2c13.7,0,24.8,11.1,24.8,24.8V379.6z"/>
		<path class="st19" d="M243.1,348.5c-1.4,0-2.7,0.1-4,0.3c0.3,1.6,0.4,3.3,0.4,5c0,16.5-12.7,30.1-29,32.1
			c2.5,15.5,16.1,27.3,32.6,27.3c18.2,0,33-14.5,33-32.3C276.2,363,261.4,348.5,243.1,348.5z"/>
		<path class="st3" d="M285.1,333.5c0,2.3-0.2,4.6-0.6,7c-2.5,16-12.2,28.1-22.8,29.6c-0.3,7.2-1.8,13.7-3.5,19.2
			c-2,6.3-9.3,12.9-9.3,12.9c-1.8,11.1,36.1,27.5,35.2,25.7s-10.2-14.9-13.3-27c-2.1-8.4,0.6-15.3,3.8-20.1c5.9-7,14.5-6.9,14.5-6.9
			c0.8,0,1.6-0.4,2.1-0.9c0.5-1.6,0.8-3.4,0.8-5.2v-20.5C292,341.7,289.3,336.7,285.1,333.5z"/>
		<g>
			<path class="st10" d="M201.6,563.4c0-0.1-0.1-0.3-0.1-0.4c0.1-0.1,0.1-0.2,0.2-0.3c3.5-18.1,8.9-35.8,17.2-51.7
				c5.8-11.3,17.6-21.9,22.8-27.3c13.4,7.3,26.6,3.9,39,13.3c1.6,5.1,2.9,10.7,3.9,16.8c1.9,10.9,3.5,21,4.9,30.5
				c23,6.8,30.8,13.1,43.2,21c1.6,0.9,7.3,6.6,8.9,8c-0.9,17.4-3.3,29.3-11.9,43.2c-1.5,2.5-18.4,1.5-33.3-1
				c-6.9-1.1-29.4-2.5-31.8-3.5C190.1,604.2,199,577.4,201.6,563.4z"/>
			<path class="st7" d="M343,607.1c2.5-4,4.9-7.9,7.2-11.8c1.8-7.6,1.8-12.8-0.4-14.7c-8.3-7.2-40.8,9.6-81.1,93.9
				c-2,4.2-41.9,72-40.3,71.1C247.6,733.8,306.6,666.1,343,607.1z"/>
			<path class="st8" d="M227.9,738.2l12.9-20.6c1.3-2,3.3-3.1,5.2-3l-9.9,15.8c-1.9,3.1-1.5,7.2,1,9.2c0.8,0.7,1.8,1,2.8,1.1l-3,4.7
				c-1.9,3.1-5.5,3.9-8,1.9C226.5,745.4,226,741.3,227.9,738.2z"/>
			<path class="st3" d="M276,465.3l23.5-36.3c7-10.8,2.9-21.7-9.2-24.3l-68-14.3c-7.5-0.9-19.7,9.9-17,22.7l14.4,42L276,465.3z"/>
			<path class="st8" d="M292.3,408.4c-9.1,31.1,9.7,91.2,9.7,91.2s10.2,5.3,12.6,0.1c3-6.6-1.9-27.7-5.4-72.3
				C307.1,399.8,293.8,403.2,292.3,408.4z"/>
			<path class="st8" d="M209.9,391.6c-24.1,17.3-40.5,71-40.5,71s3.4,5.9,8.2,3.5c6-3,15.4-17.3,36.3-51.3
				C226.7,393.7,213.9,388.7,209.9,391.6z"/>
			<path class="st1" d="M229.7,480.9c0.1,4.9,5.2,12.7,8.8,12.6l39.3,2c3.7-0.1,9.1-6.9,9-11.8l-0.3-16.3c-0.1-4.9-3.2-8.8-6.8-8.7
				l-46.3-11c-3.7,0.1-6.6,4.1-6.5,8.9L229.7,480.9z"/>
			<path class="st29" d="M280,496.4c0,0.5-2.6,0.8-5.7,0.6l-35.5-2.2c-3.1-0.2-5.7-0.8-5.6-1.3l0.1-2c0-0.5,2.6-0.8,5.7-0.6
				l35.5,2.2c3.1,0.2,5.7,0.8,5.6,1.3L280,496.4z"/>
			<path class="st1" d="M217.2,408.9c0.6-2.4,1.5-4.5,2.5-6.4c33,23.4,56.3,13.5,73.2,9.5c0.2,1,0.3,2,0.3,3.1
				c0.6,11.6-0.2,23.3,0.3,34.9c0.5,9.3-12.6,17.3-18.8,17.6c-23.3,1-28.6-0.4-51-6.4c-6-1.6-17.2-11.4-14.8-19.9
				C211.7,430.5,214.4,419.7,217.2,408.9z"/>
			<path class="st10" d="M275.4,399.9c0,0,24.4-0.8,28.7,10.9c4.3,11.7-6.1,28.7-6.1,28.7s-6.2,21.6-7.9,33.4
				c-1.7,11.8,5.8,22.9,3.5,20.6c-0.5-0.5-6,0.1-14.8-4c-8.8-4.1-3.9-20.1-3.1-25.3s5.2-30.6,4.2-34.8
				C278.9,425.2,275.4,399.9,275.4,399.9z"/>
			<path class="st10" d="M204.6,407.3c0,0-1.9-9.8,2.2-13.6c5.9-5.7,20.2-4.9,24.8-3.6s7.8,2.8,7.8,2.8s-16.2,6.5-15.5,40
				c0.1,5.7,1.6,17.3,3.5,26.2c1.9,8.9,2.6,26.2,2.6,26.2s-9.6,2-10.1,3.4c-0.5,1.4-1-10.3-7.6-21.5
				C205.6,456.1,204.6,407.3,204.6,407.3z"/>
			<path class="st8" d="M225.9,389.2c-9,7.5-14.4,13.9-13.1,52.7c0.2,6.3-0.1,17.9,1.1,28.6c-0.5-1.1-1.1-2.2-1.8-3.3
				c-6.6-11.2-7.6-60-7.6-60s-1.9-9.8,2.2-13.6C211,389.5,219.7,388.8,225.9,389.2z"/>
			<path class="st7" d="M332.9,569.1c6,3.3,11.6,7,16.5,11.2c-9,4.3-13.3,15.1-23.8,19.1c-6.7-3.6-22.8-26.2-17.7-25
				C323.2,577.9,322,572.8,332.9,569.1z"/>
			<path class="st3" d="M303.9,572.9c6.8,0.6,11.3,2.6,16.2,6.9c-9,4.3-13.3,15.1-23.8,19.1c-7.8,5.3-11.8,20.5-11.8,15.2
				C284.5,607.2,292.4,571.9,303.9,572.9z"/>
			<path class="st3" d="M318.1,606.1c1.7-4.4,3.3-8.7,4.8-13c0.4-7.8-0.6-12.9-3.1-14.3c-9.5-5.4-38.2,17.2-61.8,107.6
				c-0.7,2.6-7.2,27.9-17.1,48c-2,4-4.4,3.2-5.5,6.5c-3.4,10.1-1.9,22.7-1.5,22.3C250.4,748,293.5,671,318.1,606.1z"/>
			<path class="st10" d="M227.1,755.7l11.2-21.6c1.1-2.1,3-3.3,4.9-3.4l-8.6,16.6c-1.7,3.2-0.9,7.3,1.8,9.1c0.9,0.6,1.9,0.9,2.9,0.8
				l-2.6,5c-1.7,3.2-5.2,4.3-7.8,2.5C226.2,763,225.4,758.9,227.1,755.7z"/>
			<g>
				<path class="st7" d="M226,500.7c0,0,4.3,3.2,5.1,5.7c0.6,1.8,2,10.5,2,10.5s-2.5-2.2-3-5.7C229.2,506.1,226,500.7,226,500.7z"/>
				<path class="st7" d="M228.9,506c2.9,1.7,4.3,5.3,5,9.9c0.6,4.4,3.2,5.8,3.2,5.8s-0.1-2.9-1.8-9.6c-0.5-1.9-1-3.8-1.7-5.6
					C231.5,500.5,221.5,501.6,228.9,506z"/>
				<path class="st7" d="M226.8,494.6c1,2.1,3.4,5.5,4.7,6.3c3.8,2.3,7.2,3.8,7.2,3.8c-4.2,2.5-9.5-2.8-12.5-3.5
					C223.3,500.4,224.3,489.1,226.8,494.6z"/>
				<path class="st3" d="M200.9,480.7c7.6,4.4,16.5,8,19.5,12c4.4,5.8,4.1,10.7,8.4,13.3c0.5,0.3,0.9,0.7,1.3,1
					c1.2,0.9,2.6,1.7,3.1,2.2c0.5,0.5,1.7,2.1,1.5,1.2c-2.1-7.3-5.2-15.2-6.5-16.5c-2.7-2.6-18.2-16.5-25-20.5
					C195.5,468.9,190.6,474.7,200.9,480.7z"/>
				<path class="st3" d="M229.2,505.4c0,0,0.9-1.5,2.2-0.9c2,1.1,4.9,4.8,5.9,6.1c1.1,1.5,5,9.5,5,9.5s-3-1.3-4.6-4.5
					C235.4,510.9,229.2,505.4,229.2,505.4z"/>
				<path class="st3" d="M192.7,464.5c-1.2,2.8-2.3,5.8-3.2,8.8c20,11.5,37.4,20.3,37.4,20.3L192.7,464.5z"/>
			</g>
			<path class="st8" d="M168.9,464c7.2,17.5,34.3,18.1,34.3,18.1s3.4-4.8,2.5-8.5c-1.1-4.7-7.9-9.5-24.2-19.5
				C171.4,447.9,167.7,461.1,168.9,464z"/>
		</g>
	</g>
	<path class="st8" d="M332.1,498c1.6,1-1.9,10.8-5.4,10.6l-2.7,0.2c0,0-23.1,0.5-22.3-11.4C301.8,497.4,307.4,486.5,332.1,498z"/>
</g>
<g>
	<path class="st30" d="M359.3,506.3c0,0,0-0.1-0.1-0.1l0.1-3.7h151.2v3.7c0,0,0,0.1,0,0.1l-0.4,0.7c-1.9,3.2-5.4,3.7-9.4,3.7H369.2
		c-4,0-7.5-0.6-9.4-3.7L359.3,506.3z"/>
	<path class="st26" d="M395.8,506.9C395.8,506.9,395.8,507,395.8,506.9l-0.4,0.6c-0.6,0.8-1.3,1.4-2.2,1.9h-23c-3.8,0-7.2-0.5-9.1-3
		l-0.4-0.6c0,0,0-0.1-0.1-0.1l0-1.8h35L395.8,506.9L395.8,506.9z"/>
	<g>
		<rect x="416.2" y="503.4" class="st26" width="75.6" height="2.6"/>
	</g>
	<g>
		<path class="st30" d="M396.6,502.4l19.6-74.3c0.5-2,2.5-3.5,4.5-3.5h106.1c2,0,3.1,1.6,2.6,3.5l-19.6,74.3H396.6z"/>
		<path class="st26" d="M456.6,463.5c-1,3.8,1.3,6.9,5,6.9c3.8,0,7.7-3.1,8.7-6.9c1-3.8-1.3-6.9-5.1-6.9
			C461.5,456.6,457.6,459.7,456.6,463.5z"/>
	</g>
</g>
<g>
	<polygon class="st18" points="897.3,766 912.8,766 887.2,518.6 864.8,518.6 	"/>
	<polygon class="st31" points="866.3,530 876.1,604.9 887.8,524.2 887.2,518.6 867.6,518.6 	"/>
	<polygon class="st18" points="376.8,766 392.3,766 366.8,518.6 344.3,518.6 	"/>
	<polygon class="st31" points="345.8,530 355.7,604.9 367.3,524.2 366.8,518.6 347.1,518.6 	"/>
	<polygon class="st18" points="214.3,766 198.8,766 224.4,518.6 246.8,518.6 	"/>
	<polygon class="st31" points="245.3,530 215.3,606.4 223.8,524.2 224.4,518.6 244,518.6 	"/>
	<rect x="202.7" y="510.6" class="st16" width="475.5" height="14.5"/>
	
		<radialGradient id="SVGID_1_" cx="5726.2739" cy="672.4512" r="482.3368" gradientTransform="matrix(-1 0 0 -1 6607.1099 981.4225)" gradientUnits="userSpaceOnUse">
		<stop  offset="1.574020e-03" style="stop-color:#CDF7F1"/>
		<stop  offset="1" style="stop-color:#5DCFCA"/>
	</radialGradient>
	<rect x="380.7" y="510.6" class="st32" width="525" height="14.5"/>
</g>
<g>
	<path class="st33" d="M848.2,506.3c0,0,0-0.1,0.1-0.1l-0.1-3.7H696.6v3.7c0,0,0,0.1,0,0.1l0.4,0.7c1.9,3.2,5.4,3.8,9.4,3.8h131.9
		c4,0,7.5-0.6,9.4-3.8L848.2,506.3z"/>
	<path class="st34" d="M811.7,506.9C811.7,506.9,811.6,507,811.7,506.9l0.4,0.6c0.6,0.8,1.3,1.4,2.2,1.9h23.1c3.8,0,7.2-0.5,9.1-3
		l0.4-0.6c0,0,0.1-0.1,0.1-0.1l0-1.8h-35.1L811.7,506.9L811.7,506.9z"/>
	<g>
		<rect x="715.4" y="503.3" class="st35" width="75.8" height="2.6"/>
	</g>
	<g>
		<path class="st36" d="M810.8,502.4l-19.7-74.5c-0.5-2-2.5-3.6-4.5-3.6H680.3c-2,0-3.1,1.6-2.6,3.6l19.7,74.5H810.8z"/>
		<path class="st33" d="M750.7,463.3c1,3.8-1.3,6.9-5.1,6.9c-3.8,0-7.7-3.1-8.7-6.9c-1-3.8,1.3-6.9,5.1-6.9S749.6,459.5,750.7,463.3
			z"/>
	</g>
</g>
<path class="st15" d="M174.2,368.9c-42.2,4-120.9,5.6-145.5-9.6C4,344,23.6,264.2,48.5,247.3c25-16.6,116.9-12.1,143.9-9.2
	C259.5,245.2,223.4,364.3,174.2,368.9z"/>
<path class="st15" d="M138,355.9c0,0,1.8,25.5,36.5,40.1c0,0-18-35.5-1.8-52.9C182.4,332.6,138,355.9,138,355.9z"/>
<g>
	<path class="st9" d="M1070,98.5c-39.8-1.7-76.3,9.8-101.3,25c-25.2,15.4-38.9,34.4-38.1,54.4c0.7,20.2,8.3,58.7,28.6,77.2
		c20.5,18.2,202.2,43.5,219.4-31.1C1193.2,160.6,1151.5,100,1070,98.5z"/>
	<path class="st9" d="M1028.3,235.1c0,0,1.5,39.6-42.3,68.2c0,0,18.4-57.8-5.8-81.7C965.7,207.3,1028.3,235.1,1028.3,235.1z"/>
</g>
<path class="st4" d="M666.9,16.4c17.3,0,31.3,14,31.3,31.3c0,17.3-31.3,64.6-31.3,64.6s-31.3-47.3-31.3-64.6
	C635.6,30.4,649.6,16.4,666.9,16.4z M666.9,58.6c5.1,0,9.3-4.1,9.3-9.3c0-5.1-4.1-9.2-9.3-9.2c-5.1,0-9.3,4.2-9.3,9.2
	C657.6,54.5,661.8,58.6,666.9,58.6z"/>
<g>
	<path class="st37" d="M1005.3,197.9v-14.6h15.3c0.9-4.7,2.8-9,5.3-12.8l-10.9-10.9l10.3-10.3l10.9,10.9c3.8-2.5,8.2-4.4,12.8-5.3
		v-15.4h14.6v15.4c4.7,0.9,9,2.8,12.8,5.3l10.9-10.9l10.3,10.3l-10.9,10.9c2.5,3.8,4.4,8.2,5.3,12.8h15.3v14.6h-15.3
		c-0.9,4.7-2.8,9-5.3,12.8l10.9,10.9l-10.3,10.3l-10.9-10.9c-3.8,2.5-8.2,4.4-12.8,5.4v15.4h-14.6v-15.4c-4.7-1-9-2.8-12.8-5.3
		l-10.9,10.9l-10.3-10.3l10.9-10.9c-2.5-3.8-4.4-8.1-5.3-12.8H1005.3z M1056.5,212.5c12.1,0,21.9-9.8,21.9-21.9
		c0-12.1-9.8-21.9-21.9-21.9c-12.1,0-21.9,9.8-21.9,21.9C1034.6,202.7,1044.4,212.5,1056.5,212.5z"/>
</g>
<g>
	<path class="st9" d="M228.9,210c0-23.5-14.1-42.5-39.7-42.5s-39.7,19-39.7,42.5c0,18.3,12.8,24.6,23.7,39.8c2.2,3,0,14.8,0,14.8h32
		c0,0-2.2-11.8,0-14.8C216,234.7,228.9,228.3,228.9,210z"/>
	<path class="st11" d="M172.6,264.7v4.4c0,7.3,5.9,13.2,13.2,13.2h6.6c7.3,0,13.2-5.9,13.2-13.2v-4.4H172.6z"/>
	<g>
		<polygon class="st38" points="181.8,211.4 176.7,204.8 172.9,209.7 170.3,207.7 176.7,199.3 181.7,205.9 186.8,199.3 191.9,205.9 
			197,199.3 202,205.9 207.1,199.3 213.5,207.6 210.9,209.7 207.1,204.8 202,211.4 197,204.8 191.9,211.4 186.8,204.8 		"/>
	</g>
	<g>
		<polygon class="st38" points="186.5,264.1 183.1,264.1 183.1,236.6 175.9,215 179,213.9 186.5,236.1 		"/>
	</g>
	<g>
		<polygon class="st38" points="196.6,264.1 193.3,264.1 193.3,236.1 200.7,213.9 203.9,215 196.6,236.6 		"/>
	</g>
	<g>
		
			<rect x="206.9" y="144.3" transform="matrix(0.4401 -0.8979 0.8979 0.4401 -8.7559 277.8985)" class="st38" width="23.1" height="3.3"/>
	</g>
	<g>
		
			<rect x="182.1" y="139.3" transform="matrix(0.1222 -0.9925 0.9925 0.1222 30.0726 315.9725)" class="st38" width="23.1" height="3.3"/>
	</g>
	<g>
		
			<rect x="164.7" y="131.9" transform="matrix(0.9544 -0.2984 0.2984 0.9544 -35.2312 56.1705)" class="st38" width="3.3" height="23.1"/>
	</g>
	<rect x="181.6" y="266.9" class="st39" width="20.7" height="3.4"/>
	<rect x="181.6" y="273.1" class="st39" width="14.9" height="3.4"/>
	<path class="st39" d="M177.6,279.3c2.3,1.8,5.1,3,8.3,3h6.6c3.1,0,6-1.1,8.3-3H177.6z"/>
</g>
<g>
	<g>
		<rect x="448.8" y="258.4" class="st10" width="9.5" height="8.7"/>
	</g>
	<g>
		<rect x="461.5" y="260.5" class="st37" width="44.6" height="4.3"/>
	</g>
	<g>
		<rect x="518.8" y="258.4" class="st2" width="9.5" height="8.7"/>
	</g>
	<g>
		<rect x="531.6" y="260.5" class="st37" width="38.8" height="4.3"/>
	</g>
	<g>
		<rect x="584.6" y="258.4" class="st37" width="9.5" height="8.7"/>
	</g>
	<g>
		<rect x="597.4" y="260.5" class="st37" width="38.8" height="4.3"/>
	</g>
	<g>
		<g>
			<rect x="656.1" y="223.2" class="st37" width="7.2" height="23.7"/>
			<rect x="642.3" y="215.6" class="st10" width="7.2" height="31.3"/>
			<rect x="628.5" y="227.9" class="st37" width="7.2" height="19"/>
			<rect x="614.7" y="202.8" class="st2" width="7.2" height="44.1"/>
			<rect x="600.9" y="210.8" class="st37" width="7.2" height="36.1"/>
			<rect x="587.1" y="197.9" class="st2" width="7.2" height="48.9"/>
			<rect x="573.3" y="227.1" class="st10" width="7.2" height="19.7"/>
			<rect x="559.5" y="214.8" class="st2" width="7.2" height="32"/>
			<rect x="545.7" y="204.5" class="st10" width="7.2" height="42.4"/>
			<rect x="531.9" y="193.1" class="st37" width="7.2" height="53.7"/>
			<rect x="518.1" y="200.8" class="st2" width="7.2" height="46.1"/>
			<rect x="504.3" y="186.7" class="st10" width="7.2" height="60.1"/>
			<rect x="490.5" y="210" class="st37" width="7.2" height="36.9"/>
			<rect x="476.7" y="216" class="st2" width="7.2" height="30.9"/>
			<rect x="462.9" y="199.3" class="st10" width="7.2" height="47.6"/>
			<rect x="449.2" y="205.2" class="st37" width="7.2" height="41.6"/>
		</g>
	</g>
</g>
<g>
	<g>
		<path class="st20" d="M1108.8,617.7c0,0-7.3-26.1-18.8-35c-11.5-8.9-19.8-21.4-35-27.2c-15.1-5.7-18.8-16.2-13.1-19.8
			s24.5-14.1,47.5,9.9c23,24,28.7,42.8,28.2,65.3C1117.1,633.4,1109.8,630.7,1108.8,617.7z"/>
		<g>
			<path class="st21" d="M1113.1,605.6c-1.1-21.5-20.8-43.1-30.3-50.1c-10.1-7.6-32.8-14.3-33-14.4l0.8-2.7
				c0.9,0.3,23.3,7,33.9,14.8c9.8,7.3,30.3,29.7,31.4,52.2L1113.1,605.6z"/>
		</g>
	</g>
	<g>
		
			<linearGradient id="SVGID_2_" gradientUnits="userSpaceOnUse" x1="-5122.186" y1="437.4151" x2="-5064.083" y2="437.4151" gradientTransform="matrix(-1 0 0 -1 -3987.3298 981.4225)">
			<stop  offset="0" style="stop-color:#FEB04C"/>
			<stop  offset="1" style="stop-color:#FFD917"/>
		</linearGradient>
		<path class="st40" d="M1115.1,626c0,0,11.8-33.4,16.7-43.9c4.9-10.5,4.2-35.5-3.5-45.3c-7.7-9.7-20.2-24.4-14.6-46
			c5.6-21.6,2.8-34.8-7.7-26.5c-10.4,8.3-28.8,26.8-29.2,56.4c-0.3,22.6,6.3,35.9,18.8,52.2C1105.7,586.4,1115.8,610.7,1115.1,626z"
			/>
		<g>
			<path class="st41" d="M1120.1,618.3c0.3-1.4,6.3-34-0.1-47.8c-1.4-3.2-3.4-7-5.5-11c-6.7-13.2-15.9-31.3-16.9-43.9
				c-1.5-20.2,11.1-39.7,11.3-39.9l-2.3-1.5c-0.5,0.8-13.3,20.5-11.7,41.6c1,13.1,10,30.7,17.2,44.9c2.1,4,4,7.8,5.4,10.9
				c6,13,0,45.8-0.1,46.2L1120.1,618.3z"/>
		</g>
	</g>
	<g>
		<path class="st10" d="M1161.5,576.4c13.6-2.6,14.6-18.3,4.2-21.4c-10.4-3.1-27.7-2.6-36,8.4c-9.7,12.7-13.6,35.5-10.4,51.7
			c3.1,16.2,0-6.3,6.8-17.2C1132.8,586.9,1150.3,578.6,1161.5,576.4z"/>
		<g>
			<path class="st6" d="M1118.7,611.1l-2.1-0.3c2.5-16.5,8.6-29.3,18.6-38.9c13.3-12.8,32-9.3,32.8-9.2l-0.4,2
				c-0.2,0-18.4-3.4-30.9,8.6C1127,582.7,1121.1,595,1118.7,611.1z"/>
		</g>
	</g>
	<polygon class="st18" points="1092.6,657.7 1130.2,657.7 1136.5,597.1 1086.3,597.1 	"/>
</g>
</svg>
